<?xml version="1.0" standalone="no"?>
<!DOCTYPE svg PUBLIC "-//W3C//DTD SVG 20010904//EN"
 "http://www.w3.org/TR/2001/REC-SVG-20010904/DTD/svg10.dtd">
<svg version="1.0" xmlns="http://www.w3.org/2000/svg"
 width="300.000000pt" height="231.000000pt" viewBox="0 0 300.000000 231.000000"
 preserveAspectRatio="xMidYMid meet">

<g transform="translate(0.000000,231.000000) scale(0.100000,-0.100000)"
fill="#000000" stroke="none">
<path d="M2802 2103 c-15 -13 -44 -94 -100 -286 -43 -147 -82 -270 -85 -273
-3 -3 -12 -2 -19 2 -7 5 -17 9 -23 9 -34 2 -95 18 -95 25 0 4 -9 6 -20 3 -12
-3 -20 0 -20 6 0 7 -4 9 -10 6 -5 -3 -15 -3 -22 1 -7 4 -26 9 -43 11 -16 2
-31 7 -33 12 -2 5 -12 7 -22 4 -11 -3 -20 -1 -20 3 0 5 -11 10 -25 10 -21 2
-33 -9 -65 -56 -45 -66 -45 -66 -27 -68 6 -1 152 -40 322 -86 171 -47 316 -84
323 -81 6 2 12 0 12 -5 0 -5 7 -7 15 -4 11 5 15 23 15 74 l0 68 -40 7 c-22 4
-40 11 -40 16 0 6 -4 7 -10 4 -5 -3 -15 -3 -22 1 -7 4 -25 9 -42 11 -16 2 -31
5 -33 6 -3 3 146 509 152 515 1 2 33 -47 71 -107 58 -94 70 -108 86 -100 16 8
11 20 -49 117 -37 59 -75 122 -86 140 -10 17 -20 32 -22 32 -1 0 -12 -8 -23
-17z m-145 -569 c-3 -3 -12 -4 -19 -1 -8 3 -5 6 6 6 11 1 17 -2 13 -5z"/>
<path d="M628 1963 c11 -16 33 -40 49 -55 28 -27 29 -27 130 -21 l102 6 -42
48 -42 49 -108 0 -108 0 19 -27z"/>
<path d="M1148 1940 c-15 -4 -29 -5 -32 -2 -3 3 -6 -38 -6 -91 l0 -97 48 -1
c26 -1 39 -3 29 -6 -17 -5 -17 -11 -1 -118 l4 -30 -111 3 c-70 2 -110 0 -108
-7 2 -5 23 -29 46 -54 l41 -44 104 5 103 4 115 -125 c104 -114 152 -175 107
-139 -22 19 -115 26 -162 13 -39 -11 -41 -10 -73 27 l-33 37 5 -34 c3 -18 6
-42 6 -53 0 -14 5 -18 15 -14 26 10 16 -1 -21 -23 -19 -12 -32 -26 -29 -31 4
-6 3 -10 -2 -9 -4 1 -24 -5 -43 -13 -19 -9 -49 -19 -67 -22 -36 -8 -34 -13
-58 114 l-17 85 -55 33 c-31 18 -57 31 -59 29 -2 -2 5 -46 15 -98 11 -52 17
-96 15 -98 -12 -12 -25 23 -44 114 -11 55 -26 105 -33 111 -16 15 -107 66
-107 61 0 -3 9 -49 20 -102 24 -118 24 -112 2 -92 -13 12 -25 51 -37 117 l-18
100 -55 31 c-30 17 -56 28 -59 25 -2 -2 4 -47 15 -100 18 -88 18 -95 2 -86
-12 6 -22 37 -34 97 -9 48 -19 96 -22 106 -5 15 -97 77 -115 77 -4 0 2 -39 12
-87 10 -49 18 -93 19 -100 0 -7 -31 6 -69 28 -37 21 -72 39 -77 39 -14 0 -67
-101 -58 -110 5 -4 137 -82 293 -172 156 -89 277 -164 269 -166 -8 -2 -54 20
-103 48 -48 28 -89 49 -90 48 -9 -9 -65 -110 -65 -116 0 -4 27 -22 60 -40 33
-19 60 -38 60 -43 0 -5 -2 -9 -5 -9 -3 0 -65 34 -137 75 -72 42 -135 72 -139
68 -4 -4 -27 -43 -52 -85 l-45 -77 138 -80 c77 -45 143 -81 147 -81 5 0 14 -9
21 -20 7 -11 10 -20 7 -20 -4 0 -128 70 -277 156 -148 86 -278 157 -287 158
-26 2 -63 -81 -57 -129 6 -51 39 -80 183 -163 102 -59 111 -67 124 -105 7 -23
13 -46 14 -52 0 -5 4 -13 8 -16 19 -14 7 -49 -41 -127 -44 -71 -67 -120 -46
-99 8 7 195 -86 218 -108 13 -13 16 -39 16 -136 l0 -119 1006 0 1007 0 -8 110
c-3 60 -4 118 0 130 7 21 98 74 109 63 3 -4 6 -1 6 6 0 7 5 9 10 6 6 -3 10 -2
10 2 0 5 20 19 45 31 25 12 45 25 45 29 0 5 -24 46 -54 92 -49 76 -62 121 -35
121 5 0 6 7 3 15 -4 8 -1 15 5 15 6 0 8 7 5 15 -4 8 -1 15 5 15 6 0 8 7 5 15
-4 8 -1 15 5 15 6 0 8 7 5 15 -4 8 -1 15 5 15 6 0 8 7 5 15 -4 8 -1 15 5 15 6
0 8 7 5 15 -4 8 -1 15 5 15 6 0 8 7 5 15 -4 8 -1 15 5 15 6 0 8 7 4 16 -4 11
-8 12 -13 4 -4 -7 -13 -9 -19 -6 -6 4 -11 3 -11 -3 0 -5 -8 -9 -17 -9 -10 1
-69 -16 -132 -36 -113 -38 -114 -39 -88 -54 30 -18 37 -38 37 -109 l0 -53 -54
0 c-30 0 -61 -3 -70 -6 -14 -5 -16 17 -16 214 l0 219 -100 20 c-55 11 -102 18
-105 15 -3 -3 -5 -14 -5 -24 0 -19 -10 -22 -47 -12 -16 4 -23 14 -23 29 0 15
-8 26 -20 30 -11 3 -20 10 -20 15 0 15 59 601 65 647 l6 42 65 6 65 7 -3 91
c-3 88 -4 91 -28 98 -35 10 -979 9 -1012 -1z m548 -203 c2 -2 3 -126 2 -275
l-3 -271 -52 47 -53 47 -6 228 -7 227 -59 0 -60 0 8 -172 7 -171 -46 38 -45
38 -7 116 c-9 155 -7 151 -62 151 l-46 0 6 -87 6 -87 -30 30 c-24 24 -31 42
-36 87 l-6 56 34 3 c45 5 450 1 455 -5z m307 5 c-29 -2 -53 -6 -53 -10 0 -4
-11 -151 -25 -327 -14 -176 -25 -328 -25 -337 0 -15 -7 -17 -47 -11 -27 3 -49
7 -51 8 -1 1 4 146 13 321 8 175 15 327 15 336 0 14 -11 18 -62 20 -35 2 16 3
112 3 96 0 151 -1 123 -3z m-469 -578 c19 -18 20 -28 6 -55 -20 -37 -80 -18
-80 26 0 42 44 59 74 29z m166 -31 c-1 -25 -14 -53 -26 -53 -17 0 -17 2 -2 35
10 23 28 35 28 18z m-361 -40 c6 -21 40 -148 76 -283 65 -245 80 -313 44 -210
-10 31 -16 41 -13 23 3 -18 1 -33 -4 -33 -5 0 -21 -11 -35 -25 -23 -24 -31
-26 -108 -23 l-82 3 -49 180 c-52 196 -56 210 -63 204 -2 -2 19 -85 46 -184
27 -99 49 -186 49 -192 0 -8 -13 -13 -30 -13 -16 0 -30 2 -30 5 0 5 -85 323
-96 357 -3 11 2 19 16 23 27 8 60 44 60 64 0 9 -12 22 -27 28 -22 11 -31 10
-50 -2 -13 -9 -23 -25 -23 -38 0 -12 25 -114 55 -226 30 -112 53 -206 51 -208
-2 -2 -28 -3 -57 -1 -48 3 -51 5 -30 14 14 6 20 14 14 17 -6 4 -18 -2 -28 -13
-10 -11 -30 -20 -44 -20 -26 1 -25 1 13 35 42 38 42 45 -2 18 l-27 -17 25 29
25 29 -34 -25 c-34 -25 -58 -61 -30 -43 12 7 12 5 0 -9 -30 -38 -56 -22 -146
93 -78 99 -95 118 -95 106 0 -2 37 -51 81 -107 l81 -104 -37 -3 c-24 -2 -41 2
-48 12 -7 8 -38 49 -70 90 l-58 75 22 30 c17 24 20 38 16 69 -6 36 -4 41 33
70 45 37 46 37 66 17 9 -8 23 -14 32 -14 14 1 14 2 -1 6 -14 4 -17 11 -13 26
3 12 6 26 6 30 0 17 53 1 68 -20 13 -21 13 -23 -9 -32 -14 -6 -18 -10 -8 -10
8 -1 19 3 25 9 6 6 37 -25 88 -90 43 -55 80 -100 82 -100 7 0 -45 71 -129 175
-79 98 -110 115 -127 71 -6 -16 -15 -24 -23 -20 -21 8 -120 -74 -113 -93 5
-12 1 -14 -14 -10 -14 3 -26 -3 -40 -21 -19 -23 -22 -24 -36 -10 -14 13 -7 21
60 73 42 32 76 62 76 66 0 5 5 9 11 9 6 0 34 18 61 40 28 22 54 40 58 40 8 0
67 -70 135 -162 28 -37 53 -67 56 -68 4 0 -3 34 -15 76 -14 50 -28 81 -41 88
-21 12 -55 49 -50 54 2 2 16 -4 31 -14 l27 -18 -5 26 c-5 25 -4 26 161 71 91
25 169 46 173 46 4 1 12 -16 17 -36z m231 17 c-6 -11 -13 -20 -16 -20 -2 0 0
9 6 20 6 11 13 20 16 20 2 0 0 -9 -6 -20z m-30 -50 c-6 -11 -13 -20 -16 -20
-2 0 0 9 6 20 6 11 13 20 16 20 2 0 0 -9 -6 -20z m-92 -36 c26 -18 28 -46 6
-69 -23 -23 -31 -9 -9 15 14 16 15 22 5 35 -7 8 -19 15 -26 15 -8 0 -14 5 -14
10 0 14 12 12 38 -6z m-339 -29 c15 -16 -49 -72 -69 -60 -14 9 -13 48 2 63 11
11 55 9 67 -3z m389 -10 c-6 -14 -13 -23 -15 -21 -5 5 15 46 22 46 3 0 -1 -11
-7 -25z m277 -14 c291 -44 338 -52 355 -61 16 -8 19 -25 22 -100 2 -49 2 -130
0 -180 l-3 -90 -284 0 c-271 0 -285 1 -295 19 -6 12 -10 98 -10 210 0 159 3
192 16 205 20 20 41 20 199 -3z m-316 -53 c-9 -16 -14 -19 -17 -9 -2 7 2 17 9
22 20 13 21 11 8 -13z m-1191 -112 c-7 -8 -15 -12 -17 -11 -5 6 10 25 20 25 5
0 4 -6 -3 -14z m422 -10 c0 -23 -23 -56 -39 -56 -13 0 -31 24 -31 40 0 23 20
40 47 40 18 0 23 -6 23 -24z m-310 -11 c19 -7 28 -13 20 -13 -8 0 -31 6 -50
13 -19 7 -28 13 -20 13 8 0 31 -6 50 -13z m180 -104 c0 -28 7 -44 30 -66 17
-16 30 -38 30 -49 0 -19 -5 -21 -65 -18 -61 3 -64 5 -54 23 6 12 7 39 3 65 -6
40 -4 49 17 69 30 29 39 23 39 -24z m900 -121 c0 -16 -7 -20 -32 -20 -30 0
-31 0 -13 20 10 11 24 20 32 20 7 0 13 -9 13 -20z m-695 -301 l0 -119 -43 0
c-36 0 -43 3 -38 18 6 21 17 161 12 147 -3 -5 -12 -45 -21 -89 -18 -84 -27
-87 -44 -16 l-11 45 5 -52 c4 -51 3 -53 -22 -53 -20 0 -24 3 -18 18 5 9 11 49
16 87 5 52 4 77 -7 99 -19 39 -19 38 23 34 32 -3 38 -7 45 -36 10 -38 28 -34
28 7 0 36 3 38 42 33 l33 -4 0 -119z m110 6 c0 -131 -5 -144 -41 -104 -14 15
-20 40 -22 93 -4 66 -2 75 23 104 15 18 30 32 33 32 4 0 7 -56 7 -125z m40
119 c48 -19 67 -160 28 -212 -41 -56 -48 -43 -48 93 0 69 1 125 2 125 1 0 9
-3 18 -6z m162 -40 c2 -21 7 -52 12 -69 l9 -30 3 35 c2 19 3 50 3 69 1 25 6
35 18 37 22 3 33 -13 20 -29 -10 -12 -29 -84 -38 -142 -11 -67 -15 -75 -33
-75 -16 0 -22 12 -31 58 -6 31 -18 83 -26 115 -8 32 -13 61 -10 65 2 4 19 7
37 6 31 -1 33 -3 36 -40z m186 -82 l2 -122 -35 0 -35 0 2 122 c1 68 2 123 3
123 0 0 14 0 31 -1 l31 -1 1 -121z m125 0 l3 -122 -33 0 -33 0 2 122 c1 68 2
123 3 123 0 1 12 0 28 -1 l27 -1 3 -121z m340 80 c4 -50 -11 -55 -26 -9 -9 26
-11 12 -9 -81 l2 -112 -40 0 -40 0 3 112 c2 80 0 109 -7 98 -6 -8 -11 -23 -11
-32 0 -10 -4 -18 -10 -18 -10 0 -15 72 -6 81 3 2 35 4 73 4 l68 -1 3 -42z
m115 -80 l2 -122 -35 0 -35 0 2 122 c1 68 2 123 3 123 0 0 14 0 31 -1 l31 -1
1 -121z m132 84 c6 -20 14 -34 18 -30 4 4 7 -5 7 -21 0 -42 -22 -155 -31 -155
-4 0 -14 26 -23 58 -14 51 -15 53 -12 17 1 -22 6 -48 10 -57 7 -15 3 -18 -19
-18 -23 0 -26 3 -21 23 3 12 6 46 6 75 0 30 4 51 9 47 11 -6 -7 65 -20 82 -12
13 1 19 39 17 22 -1 29 -7 37 -38z m98 -84 l2 -122 -37 0 c-37 0 -57 13 -38
25 6 3 10 50 10 109 0 56 2 105 5 107 2 3 16 4 30 4 l27 -2 1 -121z m125 0 l3
-122 -33 0 -33 0 2 122 c1 68 2 123 3 123 0 1 12 0 28 -1 l27 -1 3 -121z m162
113 c11 -13 11 -29 0 -85 -7 -39 -16 -70 -19 -70 -4 0 -13 32 -20 70 -10 56
-10 74 -1 85 16 19 24 19 40 0z m-910 -30 c0 -19 -4 -35 -10 -35 -5 0 -10 -20
-10 -45 0 -47 -14 -60 -25 -24 -8 25 2 69 15 69 15 0 12 26 -5 40 -22 18 -18
30 10 30 22 0 25 -4 25 -35z m810 -2 l0 -38 -25 30 c-31 38 -31 45 0 45 22 0
25 -4 25 -37z m-20 -78 c0 -25 -4 -45 -9 -45 -12 0 -21 41 -14 68 9 38 23 24
23 -23z m-790 -85 c0 -36 -2 -40 -25 -40 -16 0 -25 6 -25 15 0 8 5 15 10 15 6
0 15 11 20 25 14 36 20 31 20 -15z m814 -2 c-1 -28 -5 -33 -27 -36 -19 -2 -27
1 -27 12 0 9 5 16 10 16 6 0 15 12 20 26 13 33 25 24 24 -18z m96 17 c16 -19
3 -55 -20 -55 -23 0 -36 36 -20 55 7 8 16 15 20 15 4 0 13 -7 20 -15z"/>
<path d="M1484 1155 c-15 -11 -17 -17 -8 -32 15 -25 48 -23 52 3 4 31 -20 47
-44 29z"/>
<path d="M1274 1071 c-13 -14 -20 -17 -25 -9 -8 13 -135 -17 -146 -35 -4 -6 0
-8 8 -5 43 16 120 31 126 24 5 -4 -1 -15 -12 -23 -17 -14 -18 -15 -2 -9 10 3
28 -1 40 -9 31 -22 43 -18 16 4 l-24 20 23 23 23 23 20 -24 c11 -14 18 -33 16
-43 -3 -10 -2 -18 3 -18 4 0 11 -17 15 -37 4 -21 9 -33 11 -28 9 23 -32 138
-53 152 -20 13 -24 13 -39 -6z"/>
<path d="M1284 955 c26 -113 100 -377 103 -368 5 13 -93 383 -103 392 -4 3 -4
-7 0 -24z"/>
<path d="M1198 954 c-34 -10 -46 -18 -42 -29 7 -18 17 -18 67 -4 26 7 37 15
37 29 0 23 0 23 -62 4z"/>
<path d="M1370 905 c0 -17 63 -245 67 -241 3 2 -10 57 -27 123 -29 108 -40
140 -40 118z"/>
<path d="M1235 893 c-37 -10 -68 -24 -63 -28 3 -3 22 1 44 8 21 8 45 12 53 9
8 -3 11 0 7 7 -8 12 -9 12 -41 4z"/>
<path d="M900 804 c169 -215 201 -254 207 -254 6 0 -16 30 -145 195 -52 66
-99 122 -105 124 -6 2 13 -27 43 -65z"/>
<path d="M785 817 c-32 -28 -35 -34 -23 -45 12 -10 22 -6 53 21 23 20 36 38
31 45 -11 18 -19 15 -61 -21z"/>
<path d="M1245 843 c-36 -10 -68 -23 -63 -28 2 -3 29 4 59 14 49 18 52 26 4
14z"/>
<path d="M859 787 c-52 -39 -71 -58 -66 -63 3 -4 13 1 21 9 9 9 28 25 42 36
28 22 31 38 3 18z"/>
<path d="M1238 788 c-25 -6 -38 -16 -38 -26 0 -13 2 -14 8 -4 5 7 28 18 53 26
50 16 33 19 -23 4z"/>
<path d="M880 738 c-14 -11 -34 -26 -44 -34 -11 -7 -17 -16 -13 -20 3 -3 13 1
21 9 9 9 28 25 42 36 15 12 25 23 23 25 -2 2 -15 -5 -29 -16z"/>
<path d="M1275 743 c-42 -11 -66 -23 -61 -32 7 -11 97 11 97 24 1 12 -10 14
-36 8z"/>
<path d="M893 684 c-18 -14 -33 -30 -33 -35 0 -5 14 3 31 18 17 16 38 31 47
35 14 5 14 7 2 7 -8 1 -30 -11 -47 -25z"/>
<path d="M1281 681 c-28 -11 -39 -20 -30 -24 10 -4 10 -6 -3 -6 -10 -1 -18 -5
-18 -10 0 -6 24 -3 53 6 62 18 75 28 27 20 -34 -5 -34 -5 -7 6 15 6 27 14 27
19 0 10 4 11 -49 -11z"/>
<path d="M927 643 c-37 -26 -47 -43 -26 -43 14 0 79 50 79 61 0 15 -13 10 -53
-18z"/>
<path d="M1295 618 c-16 -5 -36 -12 -44 -14 -8 -2 -12 -6 -9 -9 2 -2 25 2 50
10 25 7 49 11 52 8 3 -4 6 -1 6 5 0 14 -14 14 -55 0z"/>
<path d="M1315 570 c-13 -5 -14 -9 -5 -9 8 0 24 4 35 9 13 5 14 9 5 9 -8 0
-24 -4 -35 -9z"/>
<path d="M1870 849 c-35 -14 -60 -39 -60 -60 0 -13 5 -16 17 -12 15 6 16 -2
10 -80 l-7 -87 49 0 c81 0 79 -3 73 123 -2 62 -5 113 -6 114 -6 8 -56 10 -76
2z"/>
<path d="M742 1853 c-10 -4 1 -21 34 -54 53 -54 57 -55 187 -42 l68 6 -47 49
-48 48 -91 -1 c-49 0 -96 -3 -103 -6z"/>
<path d="M886 1722 l-39 -3 49 -50 48 -49 98 0 c53 0 99 4 102 8 3 5 -16 30
-42 55 l-48 47 -65 -2 c-35 -1 -82 -4 -103 -6z"/>
<path d="M214 1345 c-14 -25 -27 -53 -28 -61 -1 -11 56 -49 164 -111 91 -52
170 -97 176 -100 7 -2 26 21 44 52 27 48 30 59 19 70 -17 16 -329 195 -340
195 -5 0 -20 -20 -35 -45z"/>
<path d="M140 1218 c-11 -18 -20 -36 -20 -40 0 -6 211 -128 223 -128 6 0 47
63 47 73 0 6 -213 127 -224 127 -3 0 -15 -15 -26 -32z"/>
<path d="M85 1120 c-8 -16 -15 -31 -15 -34 0 -7 190 -118 211 -123 20 -6 57
54 42 67 -14 15 -202 120 -212 120 -6 0 -17 -13 -26 -30z"/>
</g>
</svg>
